<svg xmlns="http://www.w3.org/2000/svg" version="1.1" xmlnsXlink="http://www.w3.org/1999/xlink"
      width="1440" height="560" preserveAspectRatio="none" viewBox="0 0 1440 560">
    <g mask="url(&quot;#SvgjsMask1116&quot;)" fill="none">
        <rect width="1440" height="560" x="0" y="0" fill="rgba(60, 60, 67, 1)"></rect>
        <path d="M1464 560L0 560 L0 387.59Q44.06 311.65, 120 355.71Q204.19 319.89, 240 404.08Q246.31 338.39, 312 344.71Q380.78 293.49, 432 362.26Q478.26 336.52, 504 382.79Q530.2 288.99, 624 315.19Q692.46 263.65, 744 332.12Q765.67 281.8, 816 303.47Q860.32 275.79, 888 320.1Q993.03 305.13, 1008 410.17Q1031.11 361.27, 1080 384.38Q1119.09 303.47, 1200 342.56Q1241.4 263.96, 1320 305.36Q1365.67 279.03, 1392 324.71Q1407.26 267.97, 1464 283.22z"
              fill="rgba(176, 142, 26, 1)"></path>
        <path d="M1512 560L0 560 L0 433.68Q11.74 373.42, 72 385.16Q102.17 343.33, 144 373.5Q197.7 355.2, 216 408.9Q277.84 398.74, 288 460.57Q339.38 391.94, 408 443.32Q409.91 373.23, 480 375.14Q590.62 365.76, 600 476.38Q635.69 392.07, 720 427.76Q764.94 400.7, 792 445.65Q834.21 367.86, 912 410.06Q931.54 357.61, 984 377.15Q1030.55 351.7, 1056 398.25Q1134.11 356.36, 1176 434.46Q1222.99 361.44, 1296 408.43Q1326.18 366.61, 1368 396.79Q1398.04 354.83, 1440 384.87Q1491.23 364.1, 1512 415.33z"
              fill="rgba(212, 164, 12, 1)"></path>
        <path class="cloudy_3" d="M1512 560L0 560 L0 554.11Q9.14 491.25, 72 500.39Q141.9 450.29, 192 520.19Q258.84 467.03, 312 533.86Q360.97 510.83, 384 559.79Q435.04 538.83, 456 589.87Q491.98 505.85, 576 541.83Q621.52 467.36, 696 512.88Q754.96 499.84, 768 558.8Q839.33 510.13, 888 581.46Q888.44 509.9, 960 510.34Q977.95 456.29, 1032 474.24Q1117.58 439.82, 1152 525.4Q1217.46 518.87, 1224 584.33Q1254.22 542.55, 1296 572.77Q1279.07 483.84, 1368 466.9Q1433.05 459.95, 1440 525Q1492.04 505.04, 1512 557.07z"
              fill="rgba(255, 255, 255, 1)"></path>
    </g>
    <defs>
        <mask id="SvgjsMask1116">
            <rect width="1440" height="560" fill="#ffffff"></rect>
        </mask>
    </defs>
</svg>
