<svg id="Calque_1" data-name="Calque 1" xmlns="http://www.w3.org/2000/svg" viewBox="0 0 71.77 81.71"><defs><style>.cls-1{fill:#3e3d40;}.cls-2{fill:#fdc400;}</style></defs><title>19_024_Nicoka_identitéVisuelle_MAJ#5</title><path class="cls-1" d="M0,22.31V59.4a3.78,3.78,0,0,0,1.88,3.26L34,81.2a3.72,3.72,0,0,0,3.76,0L69.89,62.66a3.78,3.78,0,0,0,1.88-3.26V22.31a3.76,3.76,0,0,0-1.88-3.26L37.76.5A3.77,3.77,0,0,0,34,.5L1.88,19.05A3.76,3.76,0,0,0,0,22.31Z"/><path class="cls-2" d="M55.38,63.6h0V10.67L48.31,6.59v42A59,59,0,0,0,44,44.08c-4.12-3.89-8.63-7.37-12.5-11.51s-7.12-9.09-8.07-14.66v0H16.39V71l7.06,4.08V34.26c.9,1.13,1.77,2.28,2.73,3.35,3.2,3.58,6.94,6.07,10.6,9.16,5.61,4.73,10.49,10.17,11.54,16.91h7.06V63.6Z"/></svg>